<svg xmlns="http://www.w3.org/2000/svg" width="78.452" height="87.156" viewBox="0 0 78.452 87.156">
  <path id="Path_44" data-name="Path 44" d="M0,0,26,26" transform="translate(10.359 11.354)" fill="none" stroke="#707070" strokeWidth="1"/>
  <line id="Line_11" data-name="Line 11" x2="27" y2="26" transform="translate(49.359 11.354)" fill="none" stroke="#707070" strokeWidth="1"/>
  <path id="Path_45" data-name="Path 45" d="M865.5,2671.5V2716s49.5-23,40.5,0,0-44.5,0-44.5Z" transform="translate(-829.141 -2634.146)" fill="none" stroke="#707070" strokeWidth="1"/>
  <line id="Line_12" data-name="Line 12" x2="8" y2="8" transform="translate(0.359 0.354)" fill="none" stroke="#707070" strokeWidth="1"/>
  <line id="Line_13" data-name="Line 13" x2="8" y2="8" transform="translate(38.359 0.354)" fill="none" stroke="#707070" strokeWidth="1"/>
  <path id="Union_3" data-name="Union 3" d="M-740.856-768.991a3.576,3.576,0,0,1-1.2,1.593,3.914,3.914,0,0,1-2.885.607,10.319,10.319,0,0,1-3.92-1.513,20.123,20.123,0,0,1-5.523-5.3,19.02,19.02,0,0,1-3.6-8.253,6.964,6.964,0,0,1,.5-4.223L-772-801l14.517,14.92a3.434,3.434,0,0,1,1-1.167c1.319-.958,3.3-.876,5.592.233a19.032,19.032,0,0,1,6.738,5.972,19.035,19.035,0,0,1,3.6,8.254,7.5,7.5,0,0,1-.3,3.8L-736-764Z" transform="translate(772.359 846.354)" fill="none" stroke="#707070" strokeWidth="1"/>
</svg>
