<svg xmlns="http://www.w3.org/2000/svg" width="305.851" height="467.32" viewBox="0 0 305.851 467.32">
  <g id="Path_90" data-name="Path 90" transform="matrix(-0.999, 0, -0.001, 1, 298.569, 7.418)" fill="none">
    <path d="M0,53.132C-63.841-29.461,297,.323,297,.323V459.659H0S63.841,135.725,0,53.132Z" stroke="none"/>
    <path d="M 164.7256469726563 -1.906768798828125 C 120.4577789306641 -1.906768798828125 84.02552795410156 0.242828369140625 56.44096374511719 4.482330322265625 C 40.01890563964844 7.00628662109375 26.67178344726563 10.29714965820313 16.77027893066406 14.26351928710938 C 6.299407958984375 18.45803833007813 -0.3963470458984375 23.40908813476563 -3.130966186523438 28.97909545898438 C -4.594223022460938 31.9595947265625 -4.939849853515625 35.1082763671875 -4.187530517578125 38.60516357421875 C -3.355972290039063 42.47027587890625 -1.148468017578125 46.740478515625 2.373519897460938 51.29702758789063 C 17.30320739746094 70.61209106445313 26.57296752929688 104.251953125 29.92521667480469 151.2823486328125 C 32.58409118652344 188.5841522216797 31.57595825195313 234.4578399658203 26.92890930175781 287.6292114257813 C 22.79914855957031 334.8812866210938 16.4990234375 379.2885131835938 11.94102478027344 408.2210388183594 C 8.197906494140625 431.9811096191406 4.98388671875 449.4856262207031 3.629165649414063 456.6594543457031 L 293.9999694824219 456.6594543457031 L 293.9999694824219 3.096160888671875 C 288.4446105957031 2.670806884765625 274.8482055664063 1.681640625 256.5252685546875 0.7022705078125 C 234.2578430175781 -0.48797607421875 200.2559661865234 -1.906768798828125 164.7256469726563 -1.906768798828125 M 164.7256774902344 -4.906768798828125 C 233.6546325683594 -4.906768798828125 296.9999694824219 0.322601318359375 296.9999694824219 0.322601318359375 L 296.9999694824219 459.6594543457031 L -3.0517578125e-05 459.6594543457031 C -3.0517578125e-05 459.6594543457031 63.84083557128906 135.7247924804688 -3.0517578125e-05 53.1317138671875 C -37.08724975585938 5.150665283203125 69.17286682128906 -4.906768798828125 164.7256774902344 -4.906768798828125 Z" stroke="none" fill="#3d5344"/>
  </g>
</svg>
