<svg xmlns="http://www.w3.org/2000/svg" width="19.944" height="15.438" viewBox="0 0 19.944 15.438">
  <g id="Path_79" data-name="Path 79" transform="translate(19.472 15.438) rotate(180)" fill="#fff">
    <path d="M 9.5 14.9375 C 7.408040046691895 14.9375 5.366859912872314 14.72591018676758 3.752480030059814 14.34171009063721 C 2.072020053863525 13.94178009033203 0.8827400207519531 13.360520362854 0.4036999940872192 12.70499038696289 C -0.2709900140762329 11.78172969818115 -0.03590000048279762 10.0272102355957 1.048689961433411 7.891290187835693 C 1.973440051078796 6.07013988494873 3.398580074310303 4.2188401222229 4.958680152893066 2.812069892883301 C 6.612150192260742 1.321110010147095 8.224960327148438 0.5 9.5 0.5 C 10.77503967285156 0.5 12.38784980773926 1.321110010147095 14.04131984710693 2.812069892883301 C 15.60142040252686 4.2188401222229 17.02655982971191 6.07013988494873 17.95130920410156 7.891290187835693 C 19.0359001159668 10.0272102355957 19.2709903717041 11.78172969818115 18.59630012512207 12.70499038696289 C 18.11725997924805 13.360520362854 16.92798042297363 13.94178009033203 15.24752044677734 14.34171009063721 C 13.63313961029053 14.72591018676758 11.59195995330811 14.9375 9.5 14.9375 Z" stroke="none"/>
    <path d="M 9.5 1 C 8.36553955078125 1 6.832340240478516 1.795820236206055 5.293510437011719 3.18340015411377 C 3.777230262756348 4.550660133361816 2.392549514770508 6.349129676818848 1.494499206542969 8.117670059204102 C 0.5275096893310547 10.0219898223877 0.2642307281494141 11.66670989990234 0.8073902130126953 12.40997982025146 C 1.543680191040039 13.41753005981445 4.765950202941895 14.4375 9.5 14.4375 C 14.23404979705811 14.4375 17.45631980895996 13.41753005981445 18.1926097869873 12.40997982025146 C 18.73576927185059 11.66670989990234 18.47249031066895 10.0219898223877 17.50550079345703 8.117670059204102 C 16.60745048522949 6.349129676818848 15.22276973724365 4.550660133361816 13.70648956298828 3.18340015411377 C 12.16765975952148 1.795820236206055 10.63446044921875 1 9.5 1 M 9.5 0 C 14.25 0 21.375 9.75 19 13 C 17.8125 14.625 13.65625 15.4375 9.5 15.4375 C 5.34375 15.4375 1.1875 14.625 0 13 C -2.375 9.75 4.75 0 9.5 0 Z" stroke="none" fill="#707070"/>
  </g>
</svg>
