<!-- <svg xmlns="http://www.w3.org/2000/svg" width="186.027" height="62.428" viewBox="0 0 186.027 62.428">
  <g id="Rectangle_3" data-name="Rectangle 3" transform="translate(0 0.889)" fill="#fff" stroke="#707070" strokeWidth="1">
    <rect width="138" height="49" rx="15" stroke="none"/>
    <rect x="0.5" y="0.5" width="137" height="48" rx="14.5" fill="none"/>
  </g>
  <text id="Search" transform="translate(16 4.889)" fill="#707070" font-size="30" font-family="ArchitectsDaughter-Regular, Architects Daughter" opacity="0.5"><tspan x="0" y="30">Search</tspan></text>
  <path id="Path_32" data-name="Path 32" d="M3.556,23.5a18.3,18.3,0,0,1-4.5-9.139C-2.069,8.486-.944.833-.944.833" transform="translate(159.444 38.389)" fill="none" stroke="#707070" strokeWidth="1.5"/>
  <path id="Path_33" data-name="Path 33" d="M2032.987,880.678c-.776-9.463,8.725-21.229,24.043-22.712s18.137,13.249,18.913,22.712,1.834,15.172-13.484,16.655S2033.763,890.142,2032.987,880.678Z" transform="translate(-1890.943 -857.111)" fill="none" stroke="#707070" strokeWidth="1.5"/>
  <path id="Path_34" data-name="Path 34" d="M2032.97,873.234c-.489-6.375,5.5-14.3,15.151-15.3s14.833,8.926,15.322,15.3-2.248,10.221-11.9,11.22S2033.459,879.609,2032.97,873.234Z" transform="translate(-1885.443 -848.974)" fill="none" stroke="#707070" strokeWidth="1.5"/>
  <path id="Path_35" data-name="Path 35" d="M3.556,23.5a18.3,18.3,0,0,1-4.5-9.139,38.581,38.581,0,0,1,0-12.194" transform="translate(162.444 37.389)" fill="none" stroke="#707070" strokeWidth="1.5"/>
</svg> -->
<svg xmlns="http://www.w3.org/2000/svg" width="44.786" height="62.428" viewBox="0 0 44.786 62.428">
  <path id="Path_51" data-name="Path 51" d="M3.556,23.5a18.3,18.3,0,0,1-4.5-9.139C-2.069,8.486-.944.833-.944.833" transform="translate(18.204 38.389)" fill="none" stroke="#707070" strokeWidth="1.5"/>
  <path id="Path_52" data-name="Path 52" d="M2032.987,880.678c-.776-9.463,8.725-21.229,24.043-22.712s18.137,13.249,18.913,22.712,1.834,15.172-13.484,16.655S2033.763,890.142,2032.987,880.678Z" transform="translate(-2032.184 -857.111)" fill="none" stroke="#707070" strokeWidth="1.5"/>
  <path id="Path_53" data-name="Path 53" d="M2032.97,873.234c-.489-6.375,5.5-14.3,15.151-15.3s14.833,8.926,15.322,15.3-2.248,10.221-11.9,11.22S2033.459,879.609,2032.97,873.234Z" transform="translate(-2026.684 -848.974)" fill="none" stroke="#707070" strokeWidth="1.5"/>
  <path id="Path_54" data-name="Path 54" d="M3.556,23.5a18.3,18.3,0,0,1-4.5-9.139,38.581,38.581,0,0,1,0-12.194" transform="translate(21.204 37.389)" fill="none" stroke="#707070" strokeWidth="1.5"/>
</svg>
